<svg width="83" height="70" viewBox="0 0 83 70" fill="none" xmlns="http://www.w3.org/2000/svg">
<path fill-rule="evenodd" clip-rule="evenodd" d="M33.2937 6.125V3H49.9878V6.125H33.2937ZM30.2937 2.55708C30.2937 1.14484 31.4385 0 32.8508 0H50.4307C51.8429 0 52.9878 1.14484 52.9878 2.55708V6.125V6.3927H61.6406H64.6406H72.6452C78.2941 6.3927 82.8735 10.9721 82.8735 16.621V59.7717C82.8735 65.4206 78.2941 70 72.6452 70H10.636C4.98708 70 0.407715 65.4206 0.407715 59.7717V16.621C0.407715 10.9721 4.98709 6.3927 10.636 6.3927H30.2937V6.125V2.55708ZM61.6406 9.3927H23.6406L23.6406 67H61.6406L61.6406 9.3927ZM64.6406 67V9.3927H72.6452C76.6373 9.3927 79.8735 12.6289 79.8735 16.621V59.7717C79.8735 63.7638 76.6372 67 72.6452 67H64.6406ZM10.636 9.3927H20.6406L20.6406 67H10.636C6.64393 67 3.40771 63.7638 3.40771 59.7717V16.621C3.40771 12.6289 6.64394 9.3927 10.636 9.3927Z" fill="#41601A"/>
</svg>
