<svg width="170" height="40" viewBox="0 0 170 40" fill="none" xmlns="http://www.w3.org/2000/svg">
<path d="M16.1145 10.7399L20.0367 3.80078L24.0795 11.1623H22.571L26.7948 19.0066H25.0449L29.2084 26.6095H10.9856L15.2698 18.7049H13.5802L17.8644 10.7399H16.1145Z" fill="#AFCF74"/>
<path d="M7.66687 30.6545C11.6493 35.0996 22.1969 41.3227 32.5271 30.6545H7.66687Z" fill="#AFCF74"/>
<path d="M49.606 30.6001H48.154V27.0254H49.3556L55.1333 13.6678H55.6439L61.742 27.0254H62.8935V30.6001H61.4416V28.3972H49.606V30.6001ZM51.0178 27.0254H59.9997L55.3936 16.7118L51.0178 27.0254ZM64.9763 13.6678H67.9101C69.5923 13.6678 70.7272 13.7412 71.3146 13.8881C72.1557 14.095 72.8433 14.5222 73.3773 15.1697C73.9114 15.8106 74.1784 16.6183 74.1784 17.5929C74.1784 18.5742 73.9181 19.3853 73.3974 20.0262C72.8767 20.6603 72.1591 21.0876 71.2445 21.3079C70.577 21.4681 69.3287 21.5482 67.4996 21.5482H66.4482V28.3972H64.9763V13.6678ZM66.4482 15.0997V20.1063L68.9415 20.1363C69.9495 20.1363 70.6871 20.0462 71.1544 19.866C71.6217 19.679 71.9888 19.382 72.2559 18.9748C72.5229 18.5609 72.6564 18.1003 72.6564 17.5929C72.6564 17.099 72.5229 16.6484 72.2559 16.2412C71.9888 15.8273 71.635 15.5336 71.1945 15.36C70.7606 15.1864 70.0463 15.0997 69.0516 15.0997H66.4482ZM77.1323 13.6678H85.5735V15.1197H78.6042V19.7258H85.5134V21.1677H78.6042V26.9453H85.5134V28.3972H77.1323V13.6678ZM88.1569 13.6678H91.0607C92.2289 13.6678 93.1268 13.8079 93.7543 14.0883C94.3818 14.362 94.8757 14.7859 95.2362 15.36C95.6034 15.9341 95.7869 16.5716 95.7869 17.2725C95.7869 17.9267 95.6267 18.5242 95.3063 19.0649C94.9859 19.5989 94.5153 20.0328 93.8944 20.3666C94.6621 20.627 95.2529 20.934 95.6668 21.2878C96.0807 21.635 96.4011 22.0588 96.6281 22.5595C96.8617 23.0535 96.9785 23.5909 96.9785 24.1716C96.9785 25.3532 96.5446 26.3545 95.6768 27.1756C94.8157 27.99 93.6575 28.3972 92.2022 28.3972H88.1569V13.6678ZM89.5988 15.1097V19.8259H90.4399C91.4612 19.8259 92.2122 19.7324 92.6929 19.5455C93.1735 19.3519 93.554 19.0515 93.8344 18.6443C94.1147 18.2305 94.2549 17.7732 94.2549 17.2725C94.2549 16.5983 94.0179 16.0709 93.544 15.6904C93.0767 15.3033 92.329 15.1097 91.301 15.1097H89.5988ZM89.5988 21.3079V26.9553H91.4212C92.4959 26.9553 93.2836 26.8518 93.7843 26.6449C94.285 26.4313 94.6855 26.1009 94.9859 25.6536C95.293 25.2063 95.4465 24.7224 95.4465 24.2017C95.4465 23.5475 95.2329 22.9767 94.8056 22.4894C94.3784 22.0021 93.791 21.6683 93.0433 21.4881C92.5427 21.3679 91.6715 21.3079 90.4299 21.3079H89.5988ZM117.506 28.3972H115.904L111.027 17.0122L106.061 28.3972H104.458L110.867 13.6678H111.187L117.506 28.3972ZM121.431 20.2465H124.014C124.388 17.8833 125.323 16.1344 126.818 14.9995C128.32 13.8647 129.925 13.2973 131.634 13.2973C133.857 13.2973 135.723 14.0416 137.232 15.5302C138.74 17.0189 139.495 18.8513 139.495 21.0275C139.495 23.177 138.747 25.0061 137.252 26.5147C135.756 28.0167 133.924 28.7677 131.754 28.7677C129.765 28.7677 128.033 28.1302 126.558 26.8552C125.082 25.5735 124.235 23.8278 124.014 21.6183H121.431V28.3972H119.959V13.6678H121.431V20.2465ZM137.973 21.0275C137.973 19.2051 137.342 17.6998 136.08 16.5115C134.825 15.3233 133.37 14.7292 131.714 14.7292C130.066 14.7292 128.62 15.3333 127.379 16.5416C126.137 17.7431 125.516 19.2618 125.516 21.0976C125.516 22.8866 126.13 24.3752 127.359 25.5635C128.594 26.745 130.046 27.3358 131.714 27.3358C133.443 27.3358 134.919 26.7384 136.14 25.5434C137.362 24.3485 137.973 22.8432 137.973 21.0275ZM142.449 13.6678H143.951V19.1951L149.828 13.6678H151.821L144.742 20.2765L152.372 28.3972H150.419L143.951 21.5281V28.3972H142.449V13.6678ZM168.283 16.4014L167.121 17.2926C166.48 16.4581 165.709 15.8273 164.808 15.4001C163.914 14.9661 162.929 14.7492 161.854 14.7492C160.679 14.7492 159.591 15.0329 158.59 15.6003C157.589 16.1611 156.811 16.9187 156.257 17.8733C155.709 18.8212 155.436 19.8893 155.436 21.0776C155.436 22.8733 156.05 24.3719 157.278 25.5735C158.513 26.7751 160.068 27.3759 161.944 27.3759C164.007 27.3759 165.733 26.5681 167.121 24.9527L168.283 25.8338C167.548 26.7684 166.63 27.4927 165.529 28.0067C164.434 28.514 163.209 28.7677 161.854 28.7677C159.277 28.7677 157.245 27.9099 155.756 26.1943C154.508 24.7457 153.884 22.9968 153.884 20.9474C153.884 18.7912 154.638 16.9788 156.147 15.5102C157.662 14.0349 159.558 13.2973 161.834 13.2973C163.209 13.2973 164.451 13.571 165.559 14.1184C166.667 14.6591 167.575 15.4201 168.283 16.4014Z" fill="#27450D"/>
<g clip-path="url(#clip0_0_274)">
<path d="M35.6428 26.2418L32.6066 20.8321H33.0594C33.281 20.8321 33.4859 20.7147 33.5978 20.5235C33.7098 20.3323 33.712 20.096 33.6035 19.9029L30.5673 14.4932H31.0202C31.2417 14.4932 31.4466 14.3757 31.5586 14.1845C31.6706 13.9933 31.6728 13.7571 31.5643 13.5639L28.2249 7.61396C28.1144 7.4172 27.9064 7.29541 27.6808 7.29541C27.4551 7.29541 27.2471 7.4172 27.1366 7.61396L25.9962 9.64586C25.8276 9.94635 25.9345 10.3267 26.235 10.4953C26.5355 10.664 26.9158 10.5572 27.0844 10.2566L27.6807 9.19412L29.9543 13.2453H29.5014C29.2799 13.2453 29.075 13.3627 28.963 13.5539C28.851 13.7451 28.8489 13.9814 28.9574 14.1745L31.9936 19.5842H31.5407C31.3192 19.5842 31.1143 19.7017 31.0023 19.8929C30.8903 20.0841 30.8882 20.3203 30.9967 20.5135L34.0329 25.9232H32.1085C31.7639 25.9232 31.4846 26.2026 31.4846 26.5471C31.4846 26.8917 31.7639 27.1711 32.1085 27.1711H35.0985C35.32 27.1711 35.5249 27.0536 35.6369 26.8624C35.7489 26.6713 35.7512 26.4351 35.6428 26.2418Z" fill="#27450D"/>
<path d="M8.70908 26.5472C8.70908 26.2026 8.42972 25.9233 8.08514 25.9233H6.16089L9.19709 20.5136C9.30549 20.3203 9.30333 20.0841 9.19143 19.893C9.07954 19.7018 8.87455 19.5843 8.65301 19.5843H8.20011L11.2363 14.1746C11.3447 13.9814 11.3425 13.7452 11.2307 13.554C11.1188 13.3628 10.9138 13.2454 10.6922 13.2454H10.2394L12.5131 9.1942L13.1093 10.2567C13.2779 10.5572 13.6582 10.664 13.9588 10.4954C14.2593 10.3268 14.3662 9.94643 14.1976 9.64594L13.0572 7.61404C12.9467 7.41729 12.7387 7.29541 12.513 7.29541C12.2874 7.29541 12.0793 7.4172 11.9688 7.61396L8.62947 13.5639C8.52107 13.7572 8.52323 13.9933 8.63512 14.1845C8.74702 14.3757 8.952 14.4932 9.17355 14.4932H9.62637L6.59016 19.9029C6.48176 20.0961 6.48392 20.3323 6.59582 20.5235C6.70771 20.7147 6.9127 20.8321 7.13424 20.8321H7.58714L4.55094 26.2418C4.44254 26.4351 4.4447 26.6713 4.5566 26.8624C4.66849 27.0536 4.87348 27.1711 5.09502 27.1711H8.08497C8.42972 27.1712 8.70908 26.8918 8.70908 26.5472Z" fill="#27450D"/>
<path d="M19.1756 15.2051C18.831 15.2051 18.5516 15.4844 18.5516 15.829V16.661C18.5516 17.0055 18.831 17.2849 19.1756 17.2849C19.5202 17.2849 19.7995 17.0055 19.7995 16.661V15.829C19.7995 15.4844 19.5202 15.2051 19.1756 15.2051Z" fill="#27450D"/>
<path d="M21.6592 20.834C21.3146 20.834 21.0352 21.1133 21.0352 21.4579V22.2899C21.0352 22.6344 21.3146 22.9138 21.6592 22.9138C22.0037 22.9138 22.2831 22.6344 22.2831 22.2899V21.4579C22.2831 21.1133 22.0037 20.834 21.6592 20.834Z" fill="#27450D"/>
<path d="M33.9212 6.17587C30.2286 2.48327 25.3191 0.449707 20.097 0.449707C14.8749 0.449707 9.96537 2.48327 6.27285 6.17587C2.58026 9.86838 0.546692 14.7779 0.546692 20C0.546692 25.2221 2.58026 30.1317 6.27285 33.8242C9.96537 37.5168 14.8749 39.5503 20.097 39.5503C25.3191 39.5503 30.2286 37.5168 33.9212 33.8242C37.6138 30.1317 39.6473 25.2221 39.6473 20C39.6473 14.7779 37.6138 9.86838 33.9212 6.17587ZM20.097 38.3024C10.005 38.3024 1.79458 30.0921 1.79458 20C1.79458 9.90798 10.005 1.6976 20.097 1.6976C30.189 1.6976 38.3994 9.90798 38.3994 20C38.3994 30.0921 30.189 38.3024 20.097 38.3024Z" fill="#27450D"/>
<path d="M32.6601 29.9534H28.305V29.0431C28.305 28.6986 28.0256 28.4192 27.681 28.4192C27.3364 28.4192 27.0571 28.6986 27.0571 29.0431V29.9534H20.7209V27.1713H29.2468C29.4683 27.1713 29.6732 27.0538 29.7852 26.8627C29.8972 26.6715 29.8994 26.4352 29.7909 26.242L25.924 19.3522H26.7331C27.0777 19.3522 27.3571 19.0728 27.3571 18.7282C27.3571 18.6017 27.3194 18.4839 27.2547 18.3856L23.4087 11.5329H24.2161C24.5624 11.5329 24.8417 11.2535 24.8417 10.9089C24.8417 10.7824 24.8041 10.6646 24.7393 10.5663L20.6411 3.2641C20.5306 3.06735 20.3225 2.94556 20.097 2.94556C19.8715 2.94556 19.6633 3.06735 19.5528 3.2641L15.4337 10.6034C15.3253 10.7966 15.3275 11.0328 15.4394 11.224C15.5513 11.4152 15.7563 11.5326 15.9778 11.5326H16.7853L12.9184 18.4226C12.81 18.6158 12.8121 18.852 12.924 19.0432C13.0359 19.2344 13.2409 19.3518 13.4625 19.3518H14.2699L10.403 26.2417C10.2946 26.435 10.2968 26.6712 10.4087 26.8623C10.5206 27.0535 10.7256 27.171 10.9471 27.171H19.4731V29.9531H13.1368V29.0428C13.1368 28.6982 12.8575 28.4189 12.5129 28.4189C12.1683 28.4189 11.889 28.6982 11.889 29.0428V29.9531H7.53347C7.29072 29.9531 7.07001 30.0939 6.96768 30.3141C6.86535 30.5342 6.90004 30.7937 7.05653 30.9793C10.3121 34.8404 15.0652 37.0546 20.097 37.0546C21.9976 37.0546 23.8663 36.742 25.6511 36.1254C25.9768 36.0129 26.1497 35.6576 26.0371 35.3319C25.9247 35.0062 25.5692 34.8334 25.2436 34.9459C23.5902 35.5171 21.8586 35.8067 20.097 35.8067C15.8994 35.8067 11.9111 34.1438 8.95515 31.2013H31.2389C30.1216 32.314 28.8505 33.2491 27.4458 33.9902C27.1409 34.151 27.0242 34.5284 27.185 34.8332C27.3458 35.138 27.7234 35.2547 28.028 35.0939C29.988 34.0599 31.707 32.6757 33.1371 30.9796C33.2936 30.794 33.3283 30.5345 33.226 30.3144C33.1236 30.0942 32.9029 29.9534 32.6601 29.9534ZM12.0128 25.9233L15.8797 19.0335C15.9881 18.8402 15.9859 18.604 15.8741 18.4128C15.7622 18.2217 15.5572 18.1042 15.3356 18.1042H14.5282L18.395 11.2143C18.5034 11.021 18.5013 10.7848 18.3894 10.5936C18.2775 10.4025 18.0725 10.285 17.851 10.285H17.0435L20.097 4.84435L23.1504 10.2848H22.343C22.1214 10.2848 21.9165 10.4023 21.8045 10.5935C21.6926 10.7846 21.6904 11.0209 21.7989 11.2141L25.6658 18.104H24.8583C24.6368 18.104 24.4318 18.2215 24.3199 18.4127C24.2079 18.6039 24.2057 18.8401 24.3142 19.0333L28.1811 25.9232H12.0128V25.9233Z" fill="#27450D"/>
</g>
<defs>
<clipPath id="clip0_0_274">
<rect width="39.1006" height="39.1006" fill="white" transform="translate(0.546692 0.449707)"/>
</clipPath>
</defs>
</svg>
