<svg width="71" height="71" viewBox="0 0 71 71" fill="none" xmlns="http://www.w3.org/2000/svg">
<g clip-path="url(#clip0_0_229)">
<path d="M35.9609 22.0662C33.2584 22.0662 30.6166 22.8676 28.3695 24.369C26.1224 25.8704 24.371 28.0045 23.3368 30.5013C22.3026 32.9981 22.032 35.7456 22.5593 38.3962C23.0865 41.0468 24.3879 43.4815 26.2989 45.3925C28.2098 47.3035 30.6446 48.6049 33.2952 49.1321C35.9458 49.6593 38.6932 49.3887 41.19 48.3545C43.6868 47.3203 45.8209 45.5689 47.3223 43.3219C48.8238 41.0748 49.6252 38.4329 49.6252 35.7304C49.6252 32.1064 48.1856 28.6309 45.623 26.0683C43.0605 23.5058 39.5849 22.0662 35.9609 22.0662ZM35.9609 46.1152C33.907 46.1152 31.8992 45.5062 30.1914 44.3651C28.4837 43.224 27.1526 41.6021 26.3666 39.7045C25.5806 37.8069 25.375 35.7189 25.7757 33.7044C26.1764 31.69 27.1654 29.8396 28.6178 28.3872C30.0701 26.9349 31.9205 25.9458 33.935 25.5451C35.9494 25.1444 38.0375 25.3501 39.935 26.1361C41.8326 26.9221 43.4545 28.2531 44.5956 29.9609C45.7367 31.6687 46.3458 33.6765 46.3458 35.7304C46.3458 38.4846 45.2517 41.1261 43.3041 43.0736C41.3566 45.0211 38.7152 46.1152 35.9609 46.1152Z" fill="#41601A"/>
<path d="M67.1154 26.9854H62.2346C62.1209 26.9845 62.0103 26.9483 61.9183 26.8816C61.8262 26.815 61.7571 26.7214 61.7208 26.6137C61.4031 25.7115 61.0382 24.8267 60.6276 23.9628C60.5764 23.8609 60.5583 23.7455 60.576 23.6328C60.5936 23.52 60.6461 23.4157 60.726 23.3343L64.1749 19.8799C64.5302 19.5247 64.812 19.1029 65.0043 18.6387C65.1966 18.1744 65.2956 17.6769 65.2956 17.1744C65.2956 16.672 65.1966 16.1744 65.0043 15.7102C64.812 15.246 64.5302 14.8242 64.1749 14.4689L57.217 7.51653C56.8618 7.16122 56.44 6.87936 55.9757 6.68706C55.5115 6.49477 55.014 6.39579 54.5115 6.39579C54.009 6.39579 53.5115 6.49477 53.0473 6.68706C52.5831 6.87936 52.1613 7.16122 51.806 7.51653L48.3571 10.9654C48.2757 11.0453 48.1714 11.0978 48.0587 11.1155C47.9459 11.1331 47.8305 11.115 47.7286 11.0638C46.8648 10.653 45.9799 10.2881 45.0777 9.97063C44.97 9.93427 44.8764 9.86524 44.8098 9.77315C44.7432 9.68107 44.7069 9.57051 44.7061 9.45686V4.57599C44.7061 3.56127 44.303 2.58812 43.5854 1.87061C42.8679 1.15309 41.8948 0.75 40.8801 0.75H31.0418C30.0271 0.75 29.0539 1.15309 28.3364 1.87061C27.6189 2.58812 27.2158 3.56127 27.2158 4.57599V9.45686C27.215 9.57051 27.1787 9.68107 27.1121 9.77315C27.0455 9.86524 26.9518 9.93427 26.8442 9.97063C25.942 10.2883 25.0571 10.6532 24.1933 11.0638C24.0914 11.115 23.9759 11.1331 23.8632 11.1155C23.7505 11.0978 23.6461 11.0453 23.5647 10.9654L20.1104 7.51653C19.7551 7.16122 19.3333 6.87936 18.8691 6.68706C18.4049 6.49477 17.9074 6.39579 17.4049 6.39579C16.9024 6.39579 16.4049 6.49477 15.9407 6.68706C15.4764 6.87936 15.0547 7.16122 14.6994 7.51653L7.747 14.4744C7.39169 14.8296 7.10983 15.2514 6.91753 15.7157C6.72523 16.1799 6.62626 16.6774 6.62626 17.1799C6.62626 17.6824 6.72523 18.1799 6.91753 18.6441C7.10983 19.1083 7.39169 19.5301 7.747 19.8854L11.1959 23.3343C11.2758 23.4157 11.3283 23.52 11.3459 23.6328C11.3636 23.7455 11.3455 23.8609 11.2942 23.9628C10.8835 24.8266 10.5186 25.7115 10.2011 26.6137C10.1647 26.7214 10.0957 26.815 10.0036 26.8816C9.91154 26.9483 9.80098 26.9845 9.68733 26.9854H4.80646C3.79174 26.9854 2.81859 27.3884 2.10107 28.106C1.38356 28.8235 0.980469 29.7966 0.980469 30.8113L0.980469 40.6496C0.980469 41.6643 1.38356 42.6375 2.10107 43.355C2.81859 44.0725 3.79174 44.4756 4.80646 44.4756H9.68733C9.80098 44.4764 9.91154 44.5127 10.0036 44.5793C10.0957 44.6459 10.1647 44.7396 10.2011 44.8473C10.5187 45.7494 10.8836 46.6343 11.2942 47.4981C11.3455 47.6 11.3636 47.7155 11.3459 47.8282C11.3283 47.9409 11.2758 48.0453 11.1959 48.1267L7.747 51.581C7.39169 51.9363 7.10983 52.3581 6.91753 52.8223C6.72523 53.2865 6.62626 53.784 6.62626 54.2865C6.62626 54.789 6.72523 55.2865 6.91753 55.7507C7.10983 56.215 7.39169 56.6368 7.747 56.992L14.7048 63.9499C15.0601 64.3052 15.4819 64.587 15.9461 64.7793C16.4103 64.9716 16.9079 65.0706 17.4104 65.0706C17.9128 65.0706 18.4104 64.9716 18.8746 64.7793C19.3388 64.587 19.7606 64.3052 20.1159 63.9499L23.5647 60.501C23.6461 60.4211 23.7505 60.3686 23.8632 60.3509C23.9759 60.3333 24.0914 60.3514 24.1933 60.4026C25.0571 60.8134 25.9419 61.1783 26.8442 61.4958C26.9518 61.5321 27.0455 61.6012 27.1121 61.6932C27.1787 61.7853 27.215 61.8959 27.2158 62.0095V66.8849C27.2158 67.8997 27.6189 68.8728 28.3364 69.5903C29.0539 70.3078 30.0271 70.7109 31.0418 70.7109H40.8801C41.8948 70.7109 42.8679 70.3078 43.5854 69.5903C44.303 68.8728 44.7061 67.8997 44.7061 66.8849V62.0041C44.7069 61.8904 44.7432 61.7799 44.8098 61.6878C44.8764 61.5957 44.97 61.5267 45.0777 61.4903C45.9799 61.1727 46.8647 60.8078 47.7286 60.3972C47.8305 60.3459 47.9459 60.3278 48.0587 60.3455C48.1714 60.3631 48.2757 60.4156 48.3571 60.4955L51.8115 63.9444C52.1667 64.2997 52.5885 64.5816 53.0527 64.7739C53.517 64.9662 54.0145 65.0651 54.517 65.0651C55.0195 65.0651 55.517 64.9662 55.9812 64.7739C56.4454 64.5816 56.8672 64.2997 57.2225 63.9444L64.1803 56.9866C64.5357 56.6313 64.8175 56.2095 65.0098 55.7453C65.2021 55.2811 65.3011 54.7835 65.3011 54.2811C65.3011 53.7786 65.2021 53.281 65.0098 52.8168C64.8175 52.3526 64.5357 51.9308 64.1803 51.5755L60.7315 48.1267C60.6515 48.0453 60.5991 47.9409 60.5814 47.8282C60.5638 47.7155 60.5818 47.6 60.6331 47.4981C61.0438 46.6343 61.4087 45.7495 61.7262 44.8473C61.7626 44.7396 61.8316 44.6459 61.9237 44.5793C62.0158 44.5127 62.1264 44.4764 62.24 44.4756H67.1154C68.1301 44.4756 69.1033 44.0725 69.8208 43.355C70.5383 42.6375 70.9414 41.6643 70.9414 40.6496V30.8113C70.9414 29.7966 70.5383 28.8235 69.8208 28.106C69.1033 27.3884 68.1301 26.9854 67.1154 26.9854ZM67.662 40.6496C67.662 40.7946 67.6044 40.9336 67.5019 41.0361C67.3994 41.1386 67.2604 41.1962 67.1154 41.1962H62.2346C61.4418 41.1971 60.6689 41.4442 60.0226 41.9034C59.3764 42.3626 58.8888 43.0112 58.6272 43.7596C58.3475 44.552 58.0264 45.3292 57.6652 46.088C57.3189 46.8032 57.2039 47.6085 57.3361 48.392C57.4683 49.1756 57.8412 49.8986 58.4031 50.4605L61.852 53.9094C61.9538 54.0118 62.0109 54.1503 62.0109 54.2947C62.0109 54.4391 61.9538 54.5776 61.852 54.68L54.8996 61.6269C54.7972 61.7287 54.6586 61.7859 54.5143 61.7859C54.3699 61.7859 54.2313 61.7287 54.1289 61.6269L50.6801 58.1781C50.1181 57.6162 49.3952 57.2433 48.6116 57.1111C47.828 56.9789 47.0227 57.0939 46.3075 57.4402C45.547 57.8016 44.768 58.1227 43.9737 58.4022C43.2263 58.6647 42.5789 59.1527 42.1207 59.7989C41.6625 60.445 41.4162 61.2174 41.4157 62.0095V66.8849C41.4157 67.0299 41.3581 67.1689 41.2556 67.2714C41.1531 67.3739 41.0141 67.4315 40.8691 67.4315H31.0418C30.8969 67.4315 30.7578 67.3739 30.6553 67.2714C30.5528 67.1689 30.4952 67.0299 30.4952 66.8849V62.0041C30.4943 61.2113 30.2472 60.4384 29.788 59.7922C29.3288 59.146 28.6802 58.6583 27.9318 58.3967C27.1394 58.1171 26.3622 57.796 25.6034 57.4348C24.8882 57.0884 24.0829 56.9734 23.2994 57.1056C22.5158 57.2379 21.7928 57.6108 21.2309 58.1726L17.782 61.6215C17.6796 61.7233 17.5411 61.7804 17.3967 61.7804C17.2523 61.7804 17.1138 61.7233 17.0114 61.6215L10.0645 54.6691C9.96266 54.5667 9.90552 54.4282 9.90552 54.2838C9.90552 54.1394 9.96266 54.0009 10.0645 53.8984L13.5133 50.4496C14.0752 49.8876 14.4481 49.1647 14.5803 48.3811C14.7125 47.5975 14.5975 46.7922 14.2512 46.077C13.8898 45.3165 13.5687 44.5375 13.2892 43.7432C13.0252 42.9988 12.5372 42.3543 11.8923 41.8983C11.2474 41.4423 10.4772 41.197 9.68733 41.1962H4.80646C4.6615 41.1962 4.52248 41.1386 4.41997 41.0361C4.31747 40.9336 4.25989 40.7946 4.25989 40.6496V30.8113C4.25989 30.6664 4.31747 30.5274 4.41997 30.4249C4.52248 30.3224 4.6615 30.2648 4.80646 30.2648H9.68733C10.4801 30.2639 11.253 30.0167 11.8992 29.5575C12.5455 29.0983 13.0331 28.4497 13.2947 27.7014C13.5743 26.9089 13.8954 26.1317 14.2566 25.373C14.603 24.6578 14.718 23.8525 14.5858 23.0689C14.4536 22.2853 14.0806 21.5624 13.5188 21.0004L10.0699 17.5516C9.96813 17.4492 9.91099 17.3106 9.91099 17.1662C9.91099 17.0218 9.96813 16.8833 10.0699 16.7809L17.0223 9.83399C17.1247 9.73219 17.2632 9.67505 17.4076 9.67505C17.552 9.67505 17.6905 9.73219 17.793 9.83399L21.2418 13.2828C21.8038 13.8447 22.5267 14.2176 23.3103 14.3498C24.0939 14.4821 24.8992 14.367 25.6144 14.0207C26.3749 13.6593 27.1539 13.3382 27.9482 13.0588C28.6926 12.7947 29.3371 12.3068 29.7931 11.6619C30.2492 11.0169 30.4944 10.2467 30.4952 9.45686V4.57599C30.4952 4.43103 30.5528 4.29201 30.6553 4.18951C30.7578 4.087 30.8969 4.02942 31.0418 4.02942H40.8801C41.025 4.02942 41.164 4.087 41.2665 4.18951C41.3691 4.29201 41.4266 4.43103 41.4266 4.57599V9.45686C41.4275 10.2496 41.6747 11.0225 42.1339 11.6688C42.5931 12.315 43.2417 12.8026 43.9901 13.0642C44.7825 13.3439 45.5597 13.665 46.3184 14.0262C47.0336 14.3725 47.8389 14.4875 48.6225 14.3553C49.4061 14.2231 50.129 13.8502 50.691 13.2883L54.1399 9.83946C54.2423 9.73766 54.3808 9.68052 54.5252 9.68052C54.6696 9.68052 54.8081 9.73766 54.9105 9.83946L61.8683 16.7973C61.9701 16.8997 62.0273 17.0382 62.0273 17.1826C62.0273 17.327 61.9701 17.4655 61.8683 17.568L58.4195 21.0168C57.8576 21.5788 57.4847 22.3017 57.3525 23.0853C57.2203 23.8689 57.3353 24.6742 57.6816 25.3894C58.043 26.1499 58.3641 26.9289 58.6436 27.7232C58.9061 28.4706 59.3941 29.118 60.0403 29.5762C60.6864 30.0343 61.4588 30.2807 62.2509 30.2812H67.1154C67.2604 30.2812 67.3994 30.3388 67.5019 30.4413C67.6044 30.5438 67.662 30.6828 67.662 30.8277V40.6496Z" fill="#41601A"/>
</g>
<defs>
<clipPath id="clip0_0_229">
<rect width="69.9609" height="69.9609" fill="white" transform="translate(0.980469 0.75)"/>
</clipPath>
</defs>
</svg>
