<svg width="33" height="32" viewBox="0 0 33 32" fill="none" xmlns="http://www.w3.org/2000/svg">
<path d="M16.1788 0.166748C13.0472 0.166748 9.986 1.09536 7.38223 2.83515C4.77845 4.57493 2.74905 7.04776 1.55066 9.94093C0.352274 12.8341 0.0387207 16.0176 0.649653 19.089C1.26059 22.1604 2.76856 24.9816 4.9829 27.1959C7.19723 29.4103 10.0185 30.9183 13.0898 31.5292C16.1612 32.1401 19.3447 31.8266 22.2379 30.6282C25.1311 29.4298 27.6039 27.4004 29.3437 24.7966C31.0835 22.1928 32.0121 19.1316 32.0121 16.0001C32.0123 13.9208 31.6028 11.8618 30.8072 9.94072C30.0116 8.01966 28.8453 6.27413 27.375 4.80384C25.9047 3.33354 24.1592 2.16728 22.2381 1.37164C20.317 0.575999 18.2581 0.166575 16.1788 0.166748ZM21.213 24.1582C21.1537 24.3059 21.0635 24.4393 20.9485 24.5494C20.8335 24.6595 20.6962 24.7437 20.546 24.7964C20.3958 24.8491 20.236 24.8691 20.0774 24.855C19.9188 24.8409 19.7651 24.7931 19.6265 24.7147L15.3283 21.3748L12.5696 23.9199C12.5056 23.9672 12.4307 23.9976 12.3518 24.0084C12.273 24.0192 12.1927 24.01 12.1183 23.9816L12.6472 19.2498L12.6641 19.2633L12.6749 19.1699C12.6749 19.1699 20.4095 12.128 20.7246 11.8279C21.0436 11.5287 20.9383 11.4638 20.9383 11.4638C20.9565 11.0988 20.3659 11.4638 20.3659 11.4638L10.1178 18.0568L5.84989 16.6033C5.84989 16.6033 5.19439 16.3682 5.13264 15.8512C5.06773 15.3382 5.87125 15.0596 5.87125 15.0596L22.8398 8.31852C22.8398 8.31852 24.2348 7.69703 24.2348 8.72625L21.213 24.1582Z" fill="#353B2D"/>
</svg>
