<svg width="32" height="32" viewBox="0 0 32 32" fill="none" xmlns="http://www.w3.org/2000/svg">
<path fill-rule="evenodd" clip-rule="evenodd" d="M16 32C24.8366 32 32 24.8366 32 16C32 7.16344 24.8366 0 16 0C7.16344 0 0 7.16344 0 16C0 24.8366 7.16344 32 16 32ZM16.3936 5.1935C21.2351 5.21494 23.4087 6.79284 23.9466 7.28914C25.7327 8.83716 26.7211 12.2717 26.0549 17.7014C25.4671 22.499 22.1236 23.349 21.0015 23.6343L21.0013 23.6343C20.8914 23.6623 20.8027 23.6848 20.7401 23.7051C20.4367 23.8039 17.7655 24.472 14.2924 24.1797C13.9091 24.6253 13.4005 25.2083 13.0322 25.6052C12.9211 25.7248 12.8172 25.843 12.7178 25.956C12.2167 26.5258 11.8323 26.9629 11.2457 26.7807C10.6646 26.6008 10.6971 25.7183 10.6971 25.7183L10.7004 23.5385H10.6955C5.61718 22.11 5.69156 16.8417 5.74905 14.0305C5.80654 11.2193 6.35156 8.95182 7.90088 7.40217C10.6841 4.84921 16.3936 5.1935 16.3936 5.1935ZM20.4287 22.1138C21.3865 21.891 24.0447 21.2724 24.5351 17.312V17.3107C25.098 12.7754 24.3282 9.67971 22.8172 8.38601C22.3622 7.97286 20.3997 6.73957 16.3042 6.72171C16.3042 6.72171 11.4546 6.40307 9.10039 8.53542C7.79012 9.82912 7.34904 11.7526 7.30032 14.1006C7.29871 14.1782 7.29688 14.2581 7.295 14.3402C7.24001 16.7414 7.14313 20.972 11.297 22.1253C11.297 22.1253 11.2802 25.4552 11.2782 25.7475C11.2769 25.9521 11.3094 26.0921 11.4276 26.121C11.5117 26.1425 11.6378 26.0989 11.745 25.9911C12.4316 25.3015 14.6299 22.6495 14.6299 22.6495C17.5801 22.8421 19.9261 22.2584 20.1785 22.1772C20.2376 22.1583 20.3228 22.1385 20.4287 22.1138ZM16.4735 12.2012C16.4815 12.0484 16.6118 11.931 16.7646 11.939C17.3302 11.9685 17.8011 12.1397 18.1366 12.4866C18.4709 12.8322 18.6345 13.3148 18.6632 13.8938C18.6708 14.0466 18.5531 14.1767 18.4003 14.1842C18.2475 14.1918 18.1175 14.0741 18.1099 13.9213C18.0853 13.4265 17.9496 13.0902 17.7384 12.8718C17.5285 12.6548 17.2078 12.5169 16.7358 12.4923C16.583 12.4843 16.4656 12.354 16.4735 12.2012ZM16.355 10.4702C16.2024 10.459 16.0697 10.5736 16.0585 10.7262C16.0473 10.8788 16.162 11.0116 16.3146 11.0227C17.3565 11.099 18.1386 11.4477 18.698 12.0583C19.2592 12.6715 19.5347 13.4359 19.5144 14.3727C19.5111 14.5257 19.6324 14.6524 19.7854 14.6557C19.9383 14.659 20.065 14.5377 20.0683 14.3847C20.0914 13.3208 19.7742 12.4135 19.1067 11.6842L19.1066 11.6841C18.4318 10.9475 17.5055 10.5544 16.355 10.4702ZM15.5751 9.32401C15.5762 9.17102 15.7011 9.04786 15.854 9.04893C17.4438 9.06 18.7878 9.58928 19.8668 10.6412C20.955 11.702 21.493 13.146 21.5066 14.9391C21.5078 15.0921 21.3847 15.217 21.2317 15.2182C21.0787 15.2194 20.9537 15.0963 20.9526 14.9433C20.9398 13.2644 20.4404 11.974 19.4801 11.0379C18.5107 10.0929 17.3071 9.61311 15.8502 9.60296C15.6972 9.60189 15.574 9.47701 15.5751 9.32401ZM17.3966 17.3525C17.1893 17.6078 16.8044 17.5753 16.8044 17.5753C13.9913 16.8572 13.2384 14.0077 13.2384 14.0077C13.2384 14.0077 13.2046 13.6228 13.4612 13.4155L13.9695 13.0115C14.2216 12.8173 14.3824 12.346 14.1258 11.8857C13.929 11.5402 13.715 11.2048 13.4846 10.8808C13.2608 10.5751 12.7395 9.94922 12.7376 9.94728C12.4862 9.65073 12.1165 9.58187 11.7268 9.78487C11.7245 9.78487 11.7206 9.78682 11.7186 9.78682C11.331 10.0102 10.9814 10.2939 10.6832 10.6274C10.6822 10.6294 10.6811 10.6304 10.6801 10.6314C10.6792 10.6323 10.6783 10.6332 10.6773 10.6349C10.4365 10.9255 10.2987 11.2102 10.2638 11.4891C10.2566 11.5303 10.2541 11.5721 10.2564 11.6138C10.2551 11.7371 10.2738 11.8597 10.3119 11.977L10.3252 11.9861C10.4467 12.4174 10.7507 13.1359 11.4114 14.3338C11.7893 15.0266 12.2251 15.6863 12.7142 16.3057C12.9592 16.6161 13.2219 16.9123 13.5009 17.1927C13.5042 17.1961 13.5076 17.1994 13.5109 17.2028C13.5175 17.2095 13.524 17.2161 13.5307 17.2226L13.5606 17.2528L13.5905 17.2827L13.6204 17.3126C13.9008 17.5915 14.1969 17.8542 14.5074 18.0992C15.1269 18.5884 15.7866 19.0242 16.4796 19.402C17.6772 20.0627 18.3963 20.3667 18.827 20.4882L18.8361 20.5015C18.9533 20.5397 19.076 20.5585 19.1992 20.5574C19.241 20.5594 19.2828 20.5568 19.324 20.5496C19.6035 20.5164 19.8881 20.3788 20.1779 20.1367C20.1814 20.1348 20.1814 20.1328 20.1853 20.1309C20.5188 19.8325 20.8027 19.483 21.0263 19.0954C21.0263 19.0935 21.0279 19.0896 21.0279 19.0873C21.2309 18.6975 21.162 18.3279 20.8639 18.0762C20.8635 18.0762 20.8392 18.0561 20.798 18.0222C20.629 17.883 20.1761 17.5099 19.9304 17.3291C19.6066 17.0988 19.2715 16.8848 18.9264 16.688C18.4658 16.4314 17.9955 16.5921 17.8006 16.8442L17.3966 17.3525Z" fill="#353B2D"/>
</svg>
