<svg width="33" height="32" viewBox="0 0 33 32" fill="none" xmlns="http://www.w3.org/2000/svg">
<path d="M32.2088 7.37092C32.191 6.68782 32.1382 6.00609 32.0505 5.32842C31.9323 4.73486 31.7352 4.15977 31.4646 3.61841C31.1816 3.03116 30.8016 2.49587 30.3405 2.03508C29.8751 1.57941 29.3408 1.20002 28.7571 0.910915C28.2151 0.645618 27.64 0.453923 27.0471 0.340915C26.3759 0.240372 25.699 0.182202 25.0205 0.166748H7.74631C7.06322 0.184539 6.38149 0.237386 5.70381 0.325081C5.11026 0.443306 4.53517 0.640328 3.99381 0.910915C3.40656 1.19391 2.87127 1.57397 2.41048 2.03508C1.9548 2.50044 1.57541 3.03479 1.28631 3.61841C1.02101 4.16049 0.829319 4.73558 0.716311 5.32842C0.615769 5.99964 0.557598 6.67654 0.542145 7.35508C0.542145 7.65591 0.542145 8.08342 0.542145 8.21008V23.7901C0.542145 23.9642 0.542145 24.3442 0.542145 24.6292C0.559936 25.3123 0.612783 25.9941 0.700478 26.6717C0.818703 27.2653 1.01573 27.8404 1.28631 28.3817C1.56931 28.969 1.94937 29.5043 2.41048 29.9651C2.87584 30.4208 3.41019 30.8001 3.99381 31.0893C4.53589 31.3545 5.11097 31.5462 5.70381 31.6592C6.37504 31.7598 7.05194 31.818 7.73048 31.8334H25.0046C25.6877 31.8156 26.3695 31.7628 27.0471 31.6751C27.6407 31.5569 28.2158 31.3598 28.7571 31.0893C29.3444 30.8062 29.8797 30.4262 30.3405 29.9651C30.7962 29.4997 31.1755 28.9654 31.4646 28.3817C31.7299 27.8397 31.9216 27.2646 32.0346 26.6717C32.1352 26.0005 32.1934 25.3236 32.2088 24.6451C32.2088 24.3442 32.2088 23.9642 32.2088 23.7901V8.21008C32.2088 8.08342 32.2088 7.65592 32.2088 7.37092ZM16.7396 27.0834C14.8382 27.074 12.9699 26.5838 11.3088 25.6584L5.29214 27.2417L6.87548 21.3517C5.85441 19.6361 5.30796 17.6798 5.29214 15.6834C5.29845 13.4397 5.96855 11.248 7.21805 9.38445C8.46755 7.52086 10.2406 6.06867 12.3138 5.2108C14.387 4.35292 16.6678 4.12773 18.8687 4.56357C21.0697 4.99941 23.0925 6.0768 24.6823 7.66004C26.2722 9.24328 27.358 11.2616 27.8029 13.4607C28.2479 15.6599 28.0322 17.9415 27.183 20.0183C26.3337 22.0951 24.8889 23.8741 23.0305 25.1313C21.1722 26.3886 18.9833 27.0678 16.7396 27.0834ZM16.7396 6.29425C15.061 6.31346 13.4174 6.77714 11.9763 7.63808C10.5351 8.49903 9.34782 9.72649 8.53528 11.1955C7.72274 12.6645 7.31398 14.3226 7.35061 16.0009C7.38724 17.6793 7.86796 19.3179 8.74381 20.7501L8.96548 21.1142L8.01548 24.5817L11.6255 23.6001L11.9738 23.8059C13.414 24.6542 15.0524 25.1075 16.7238 25.1201C19.2434 25.1201 21.6597 24.1192 23.4413 22.3376C25.2229 20.556 26.2238 18.1396 26.2238 15.6201C26.2238 13.1005 25.2229 10.6842 23.4413 8.90257C21.6597 7.12097 19.2434 6.12008 16.7238 6.12008L16.7396 6.29425ZM22.2813 19.7842C22.0739 20.1302 21.7963 20.4287 21.4662 20.6605C21.1362 20.8923 20.7612 21.0523 20.3655 21.1301C19.7742 21.2382 19.1654 21.2001 18.5921 21.0192C18.0528 20.8506 17.524 20.6497 17.0088 20.4176C15.0514 19.4354 13.3821 17.9625 12.1638 16.1426C11.5018 15.2994 11.1001 14.2815 11.008 13.2134C10.9986 12.7697 11.0825 12.3291 11.2543 11.9199C11.4262 11.5108 11.6821 11.1423 12.0055 10.8384C12.1007 10.7304 12.2176 10.6436 12.3485 10.5836C12.4794 10.5236 12.6215 10.4917 12.7655 10.4901H13.2088C13.383 10.4901 13.6205 10.4901 13.8421 10.9809C14.0638 11.4717 14.6496 12.9442 14.7288 13.0867C14.7677 13.1627 14.788 13.2468 14.788 13.3322C14.788 13.4175 14.7677 13.5016 14.7288 13.5776C14.6588 13.7496 14.5627 13.9099 14.4438 14.0526C14.3013 14.2267 14.143 14.4326 14.0163 14.5592C13.8896 14.6859 13.7313 14.8442 13.8896 15.1292C14.3204 15.8563 14.8537 16.5175 15.473 17.0926C16.1474 17.6885 16.9184 18.165 17.753 18.5017C18.038 18.6442 18.2121 18.6284 18.3705 18.5017C18.5288 18.3751 19.083 17.6784 19.273 17.3934C19.463 17.1084 19.653 17.1559 19.9063 17.2509C20.1596 17.3459 21.5688 18.0267 21.8538 18.1692C22.1388 18.3117 22.313 18.3751 22.3921 18.5017C22.4608 18.9161 22.4227 19.3412 22.2813 19.7367V19.7842Z" fill="#353B2D"/>
</svg>
